<?xml version="1.0" encoding="UTF-8" standalone="no"?><svg xmlns="http://www.w3.org/2000/svg" xmlns:xlink="http://www.w3.org/1999/xlink" fill="#000000" height="65.5" preserveAspectRatio="xMidYMid meet" version="1" viewBox="0.0 0.0 80.6 65.5" width="80.6" zoomAndPan="magnify"><g data-name="Layer 2"><g data-name="Layer 1" fill-rule="evenodd"><g id="change1_1"><path d="M8.91 23.01L26.03 40.13 43.15 57.24 34.92 65.47 0 65.47 0 31.92 8.91 23.01z" fill="#cb6ce6"/></g><g id="change1_2"><path d="M13.2 0L18.94 5.74 24.68 11.48 18.94 17.23 13.2 22.97 7.46 17.23 1.71 11.48 7.46 5.74 13.2 0z" fill="#cb6ce6" opacity="0.72"/></g><g id="change2_1"><path d="M0.3 2.06L11.63 13.39 22.97 24.72 11.63 36.06 0.3 47.39 0 47.09 0 2.36 0.3 2.06z" fill="#ffde59" opacity="0.72"/></g><g id="change3_1"><path d="M46.79 16.28L63.67 33.16 80.55 50.05 65.13 65.47 28.45 65.47 13.03 50.05 29.91 33.16 46.79 16.28z" fill="#004aad" opacity="0.72"/></g><g id="change4_1"><path d="M43.19 48.33L55.36 60.5 60.33 65.47 26.05 65.47 31.02 60.5 43.19 48.33z" fill="#ff8a00" opacity="0.72"/></g></g></g></svg>