<svg xmlns="http://www.w3.org/2000/svg" fill="#000000" height="65.5" preserveAspectRatio="xMidYMid meet" width="80.6" zoomAndPan="magnify" fill-rule="evenodd" xmlns:v="https://vecta.io/nano"><g fill="#cb6ce6"><path d="M8.91 23.01l17.12 17.12 17.12 17.11-8.23 8.23H0V31.92l8.91-8.91z"/><path d="M13.2 0l5.74 5.74 5.74 5.74-5.74 5.75-5.74 5.74-5.74-5.74-5.75-5.75 5.75-5.74L13.2 0z" opacity=".72"/></g><path d="M.3 2.06l11.33 11.33 11.34 11.33-11.34 11.34L.3 47.39l-.3-.3V2.36l.3-.3z" fill="#ffde59" opacity=".72"/><path d="M46.79 16.28l16.88 16.88 16.88 16.89-15.42 15.42H28.45L13.03 50.05l16.88-16.89 16.88-16.88z" fill="#004aad" opacity=".72"/><path d="M43.19 48.33L55.36 60.5l4.97 4.97H26.05l4.97-4.97 12.17-12.17z" fill="#ff8a00" opacity=".72"/></svg>