<?xml version="1.0" encoding="UTF-8" standalone="no"?><svg xmlns="http://www.w3.org/2000/svg" xmlns:xlink="http://www.w3.org/1999/xlink" fill="#000000" height="70.7" preserveAspectRatio="xMidYMid meet" version="1" viewBox="15.4 7.4 69.5 70.7" width="69.5" zoomAndPan="magnify"><linearGradient gradientTransform="matrix(1.4285 .2159 -.2048 1.3552 58.34 176.94)" gradientUnits="userSpaceOnUse" id="a" x1="-39.073" x2="1.598" xlink:actuate="onLoad" xlink:show="other" xlink:type="simple" y1="-91.977" y2="-91.977"><stop offset="0" stop-color="#ff00f4" stop-opacity="0.1"/><stop offset="0.49" stop-color="#ffd428" stop-opacity="0.5"/><stop offset="1" stop-color="#ff00f4" stop-opacity="0.2"/></linearGradient><path d="M74.627,66.79c-3.317,3.102-5.548,1.399-18.123,7.42c-4.437,2.124-5.711,3.079-8.564,3.314 c-7.143,0.588-12.969-4.261-14.572-5.596c-6.115-5.09-8.078-11.633-9.771-17.271c-1.383-4.609-2.411-8.035-2.051-11.854 c1.169-12.417,16.813-26.939,32.87-23.991c14.769,2.712,20.704,19.231,21.665,21.904C76.67,42.356,82.718,59.229,74.627,66.79z" fill="url(#a)"/><linearGradient gradientTransform="matrix(-1.3029 -.6242 .5922 -1.236 25.554 -178.354)" gradientUnits="userSpaceOnUse" id="b" x1="-99.281" x2="-65.902" xlink:actuate="onLoad" xlink:show="other" xlink:type="simple" y1="-139.175" y2="-139.175"><stop offset="0" stop-color="#ff00f4" stop-opacity="0.1"/><stop offset="0.49" stop-color="#ffd428" stop-opacity="0.5"/><stop offset="1" stop-color="#ff00f4" stop-opacity="0.2"/></linearGradient><path d="M36.186,24.854c3.349-1.638,4.69,0.233,16.005-1.473c3.992-0.603,5.222-1.046,7.518-0.546 c5.747,1.254,9.155,6.458,10.093,7.89c3.578,5.463,3.549,11.068,3.522,15.9c-0.021,3.949-0.036,6.885-1.235,9.795 c-3.897,9.465-19.662,17.107-31.556,10.939c-10.939-5.673-11.633-20.063-11.745-22.392C28.718,43.54,28.021,28.847,36.186,24.854z" fill="url(#b)"/><linearGradient gradientTransform="matrix(.8995 1.1305 -1.0725 .8534 -37.275 251.201)" gradientUnits="userSpaceOnUse" id="c" x1="-98.353" x2="-59.792" xlink:actuate="onLoad" xlink:show="other" xlink:type="simple" y1="-141.596" y2="-141.596"><stop offset="0" stop-color="#ff00f4" stop-opacity="0.1"/><stop offset="0.49" stop-color="#ffd428" stop-opacity="0.5"/><stop offset="1" stop-color="#ff00f4" stop-opacity="0"/></linearGradient><path d="M48.315,69.481c-4.306,0.013-4.757-2.608-17.376-6.543c-4.452-1.388-5.954-1.547-8.087-3.226 c-5.341-4.201-6.258-11.329-6.51-13.29c-0.963-7.482,1.896-13.293,4.36-18.302c2.014-4.094,3.511-7.137,6.225-9.556 c8.825-7.869,29.063-7.86,38.313,4.549c8.508,11.415,1.969,26.72,0.911,29.196C65.503,53.829,58.814,69.45,48.315,69.481z" fill="url(#c)"/><linearGradient gradientTransform="matrix(-1.4007 .3541 -.336 -1.3288 -91.845 -127.931)" gradientUnits="userSpaceOnUse" id="d" x1="-89.236" x2="-50.678" xlink:actuate="onLoad" xlink:show="other" xlink:type="simple" y1="-142.805" y2="-142.805"><stop offset="0" stop-color="#ff00f4" stop-opacity="0.1"/><stop offset="0.49" stop-color="#ffd428" stop-opacity="0.4"/><stop offset="1" stop-color="#ff00f4" stop-opacity="0"/></linearGradient><path d="M26.149,29.74c1.762-3.93,4.336-3.261,13.117-13.14c3.099-3.485,3.862-4.789,6.271-6.041 c6.027-3.137,12.9-1.037,14.791-0.459c7.215,2.204,11.333,7.202,14.883,11.511c2.9,3.521,5.057,6.139,6.145,9.607 c3.535,11.283-4.808,29.722-19.925,33.039c-13.905,3.052-25.159-9.209-26.979-11.193C33.334,51.848,21.854,39.32,26.149,29.74z" fill="url(#d)"/></svg>